PathFileType	4	(x/y/z)	S01_PSF_T12.trc
DataRate	CameraRate	NumFrames	NumMarkers	Units	OrigDataRate	OrigDataStartFrame	OrigNumFrames
240	240	4	51	mm	240	140	372
Frame#	Time	Sternum			R.Acromium			L.Acromium			Top.Head			R.ASIS			L.ASIS			R.PSIS			L.PSIS			R.Great.Tro			L.Great.Tro			R.Iliac.Crest			L.Iliac.Crest			V.Sacral			R.Thigh.Upper.Post			R.Thigh.Lower.Ant			R.Thigh.Lower.Post			R.Thigh.Upper.Ant			R.Knee.Lat			R.Knee.Med			R.Shank.Upper.Post			R.Shank.Lower.Ant			R.Shank.Lower.Post			R.Shank.Upper.Ant			R.Ankle.Lat			R.Ankle.Med			R.Heel.Upper			R.Heel.Med			R.Heel.Lat			R.Toe.Lat			R.Toe.Med			R.Toe.Tip			L.Thigh.Upper.Post			L.Thigh.Lower.Ant			L.Thigh.Lower.Post			L.Thigh.Upper.Ant			L.Knee.Lat			L.Knee.Med			L.Shank.Upper.Post			L.Shank.Lower.Ant			L.Shank.Lower.Post			L.Shank.Upper.Ant			L.Ankle.Lat			L.Ankle.Med			L.Heel.Upper			L.Heel.Med			L.Heel.Lat			L.Toe.Lat			L.Toe.Med			L.Toe.Tip			Cervical.Spine			Back			
		X1	Y1	Z1	X2	Y2	Z2	X3	Y3	Z3	X4	Y4	Z4	X5	Y5	Z5	X6	Y6	Z6	X7	Y7	Z7	X8	Y8	Z8	X9	Y9	Z9	X10	Y10	Z10	X11	Y11	Z11	X12	Y12	Z12	X13	Y13	Z13	X14	Y14	Z14	X15	Y15	Z15	X16	Y16	Z16	X17	Y17	Z17	X18	Y18	Z18	X19	Y19	Z19	X20	Y20	Z20	X21	Y21	Z21	X22	Y22	Z22	X23	Y23	Z23	X24	Y24	Z24	X25	Y25	Z25	X26	Y26	Z26	X27	Y27	Z27	X28	Y28	Z28	X29	Y29	Z29	X30	Y30	Z30	X31	Y31	Z31	X32	Y32	Z32	X33	Y33	Z33	X34	Y34	Z34	X35	Y35	Z35	X36	Y36	Z36	X37	Y37	Z37	X38	Y38	Z38	X39	Y39	Z39	X40	Y40	Z40	X41	Y41	Z41	X42	Y42	Z42	X43	Y43	Z43	X44	Y44	Z44	X45	Y45	Z45	X46	Y46	Z46	X47	Y47	Z47	X48	Y48	Z48	X49	Y49	Z49	X50	Y50	Z50	X51	Y51	Z51	

140	0.57917	-284.58	1291.3	325.57	-369.28	1528	534.72	-421.85	1576.8	214.04	-338.32	1862.3	392.81	-331.39	1038.7	474.14	-350.19	1047.4	209.31	-576.07	1084.4	395.16	-583.45	1082.3	292.3	-408.33	984.79	554.75	-453.79	995.95	133.27	-410.83	1132.9	548.06	-462.58	1137.5	147.39	-593.79	1047.4	342.16	-404.52	674.29	519.64	-330.04	608.97	487.64	-397.01	588.62	494.09	-334.64	696.7	513.75	-372.86	527.43	485.34	-369.4	535.76	342.13	-443.48	372.77	499.33	-390.7	286.98	452.94	-454.16	303.63	484.95	-383.52	357.42	473.71	-473.59	104.11	438.15	-440.57	112.84	346.52	-544.7	77.183	376.02	-527.69	48.249	347.1	-534.41	46.571	411.49	-344.81	35.341	475.09	-310.48	41.555	351.05	-248.2	56.74	407.79	-396.39	710.32	136.9	-296.81	665.86	119.56	-359.65	627.33	148.21	-341.64	750.06	111.3	-301.08	563.01	125.82	-247.4	560.49	267.8	-412.62	481.85	123.04	-408.13	371.93	139.22	-454.32	416.38	129.4	-366.87	436.13	128.41	-581.58	246.39	170.14	-538	235.56	261.22	-648.65	260.65	230.12	-649.4	234.01	263.11	-663.82	236.29	202.97	-514.94	104	135.76	-467.87	92.98	249.77	-419.74	68.141	187.69	-473.21	1610.3	394.13	-579.78	1305.7	389.3
141	0.58333	-279.48	1291.8	325.73	-363.81	1528.7	534.83	-416.8	1577.1	214.18	-332.97	1862.7	392.47	-326.54	1039	474.63	-344.99	1048	209.82	-571.04	1084.9	395	-578.3	1082.8	292.11	-403.82	984.97	554.87	-448.28	996.78	133.26	-406.08	1133.3	548.33	-457.26	1138.1	147.52	-588.66	1047.8	341.93	-402.2	674.52	519.71	-328.17	608.64	487.86	-395.32	588.79	494.21	-332.09	696.4	513.92	-371.66	527.38	485.48	-367.96	535.64	342.21	-442.82	372.95	499.39	-390.22	287	453.05	-453.69	303.83	484.96	-382.86	357.42	473.82	-473.47	104.24	438.13	-440.48	112.93	346.53	-544.57	77.385	375.99	-527.64	48.413	347.04	-534.34	46.768	411.45	-344.8	35.33	475.11	-310.44	41.533	351.08	-248.15	56.624	407.83	-389.14	711.39	136.63	-289.11	667.6	120.01	-351.92	628.61	148.14	-334.45	751.5	111.44	-292.77	564.48	126.36	-239.78	562.47	268.36	-403.17	480.96	123.21	-396.53	371.17	139.5	-443.55	414.68	129.47	-356.55	436.18	128.75	-567.59	242.15	170.11	-523.74	232.24	261.27	-635.11	254.74	230.02	-635.17	228.02	262.95	-649.6	230.14	202.77	-497.46	101.51	135.52	-450.18	91.477	249.55	-401.46	67.875	187.47	-467.88	1610.7	394.35	-574.52	1306.3	389.84
142	0.5875	-274.37	1292.2	325.89	-358.34	1529.3	534.93	-411.7	1577.4	214.3	-327.63	1863.2	392.11	-321.71	1039.2	475.11	-339.8	1048.6	210.31	-566.02	1085.4	394.84	-573.16	1083.2	291.93	-399.33	985.12	554.99	-442.8	997.55	133.24	-401.36	1133.7	548.62	-451.96	1138.5	147.62	-583.55	1048.3	341.7	-399.88	674.73	519.77	-326.31	608.31	488.07	-393.61	588.95	494.31	-329.55	696.09	514.06	-370.45	527.32	485.6	-366.52	535.51	342.27	-442.14	373.11	499.44	-389.73	287.02	453.14	-453.21	304.02	484.96	-382.2	357.42	473.93	-473.35	104.37	438.11	-440.38	113.02	346.52	-544.43	77.586	375.96	-527.6	48.573	346.97	-534.26	46.966	411.41	-344.79	35.319	475.14	-310.4	41.509	351.11	-248.1	56.505	407.87	-381.95	712.41	136.39	-281.52	669.26	120.47	-344.29	629.84	148.1	-327.34	752.87	111.59	-284.59	565.89	126.91	-232.31	564.36	268.93	-393.78	479.96	123.38	-384.93	370.34	139.77	-432.78	412.9	129.55	-346.27	436.16	129.09	-553.47	237.83	170.08	-509.37	228.82	261.3	-621.39	248.72	229.94	-620.75	221.91	262.79	-635.19	223.88	202.57	-479.86	99.02	135.25	-432.37	89.985	249.29	-383.09	67.653	187.18	-462.55	1611.1	394.56	-569.27	1306.7	390.36
143	0.59167	-269.25	1292.5	326.05	-352.88	1529.8	535.03	-406.57	1577.6	214.4	-322.3	1863.5	391.75	-316.89	1039.4	475.58	-334.61	1049	210.78	-561	1085.9	394.68	-568.04	1083.7	291.75	-394.84	985.23	555.09	-437.34	998.25	133.22	-396.66	1133.9	548.9	-446.66	1138.9	147.71	-578.46	1048.6	341.47	-397.55	674.92	519.81	-324.44	607.98	488.27	-391.9	589.1	494.4	-327	695.78	514.19	-369.23	527.25	485.72	-365.08	535.36	342.32	-441.45	373.28	499.48	-389.24	287.03	453.22	-452.71	304.22	484.95	-381.52	357.41	474.03	-473.23	104.49	438.08	-440.26	113.11	346.51	-544.29	77.785	375.92	-527.55	48.727	346.9	-534.19	47.164	411.37	-344.78	35.309	475.16	-310.35	41.483	351.13	-248.05	56.382	407.9	-374.84	713.38	136.2	-274.02	670.84	120.94	-336.76	631.01	148.1	-320.3	754.18	111.77	-276.53	567.22	127.46	-224.97	566.15	269.49	-384.43	478.86	123.56	-373.34	369.47	140.03	-422.01	411.02	129.63	-336.04	436.07	129.42	-539.22	233.43	170.04	-494.89	225.32	261.31	-607.5	242.59	229.87	-606.13	215.7	262.64	-620.58	217.53	202.37	-462.16	96.556	134.93	-414.44	88.514	248.98	-364.66	67.481	186.83	-457.22	1611.5	394.74	-564.03	1307.2	390.86
